<svg width="800" height="600" viewBox="0 0 800 600" fill="none" xmlns="http://www.w3.org/2000/svg">
  <rect width="800" height="600" fill="#1E293B"/>
  <rect x="50" y="50" width="700" height="500" rx="20" fill="#0F172A" stroke="#334155" stroke-width="2"/>
  
  <rect x="100" y="100" width="180" height="120" rx="10" fill="#334155"/>
  <text x="120" y="140" fill="#94A3B8" font-family="sans-serif" font-size="20">Users</text>
  <text x="120" y="190" fill="#F8FAFC" font-family="sans-serif" font-size="40">12.5K</text>
  
  <rect x="310" y="100" width="180" height="120" rx="10" fill="#334155"/>
  <text x="330" y="140" fill="#94A3B8" font-family="sans-serif" font-size="20">Revenue</text>
  <text x="330" y="190" fill="#10B981" font-family="sans-serif" font-size="40">$84K</text>
  
  <rect x="520" y="100" width="180" height="120" rx="10" fill="#334155"/>
  <text x="540" y="140" fill="#94A3B8" font-family="sans-serif" font-size="20">Growth</text>
  <text x="540" y="190" fill="#3B82F6" font-family="sans-serif" font-size="40">+24%</text>

  <rect x="100" y="260" width="600" height="240" rx="10" fill="#334155"/>
  <path d="M100 450 C 200 450, 200 350, 300 350 C 400 350, 400 400, 500 400 C 600 400, 600 300, 700 300" stroke="#8B5CF6" stroke-width="4" fill="none"/>
  <path d="M100 450 C 200 450, 200 380, 300 380 C 400 380, 400 420, 500 420 C 600 420, 600 320, 700 320" stroke="#3B82F6" stroke-width="4" stroke-dasharray="10 10" fill="none"/>
</svg>
